<svg xmlns="http://www.w3.org/2000/svg" xmlns:xlink="http://www.w3.org/1999/xlink" width="500" zoomAndPan="magnify" viewBox="0 0 375 374.999991" height="500" preserveAspectRatio="xMidYMid meet" version="1.0"><defs><g/><clipPath id="6fcc2a1358"><path d="M 183.097656 144.902344 L 197.765625 144.902344 L 197.765625 205.867188 L 183.097656 205.867188 Z M 183.097656 144.902344 " clip-rule="nonzero"/></clipPath><clipPath id="cf09e4644a"><path d="M 190.433594 144.902344 C 194.484375 144.902344 197.765625 148.183594 197.765625 152.234375 L 197.765625 198.523438 C 197.765625 202.574219 194.484375 205.855469 190.433594 205.855469 C 186.382812 205.855469 183.097656 202.574219 183.097656 198.523438 L 183.097656 152.234375 C 183.097656 148.183594 186.382812 144.902344 190.433594 144.902344 Z M 190.433594 144.902344 " clip-rule="nonzero"/></clipPath><clipPath id="99f7d1c89a"><path d="M 0.0976562 0.902344 L 14.765625 0.902344 L 14.765625 61.867188 L 0.0976562 61.867188 Z M 0.0976562 0.902344 " clip-rule="nonzero"/></clipPath><clipPath id="288f962b43"><path d="M 7.433594 0.902344 C 11.484375 0.902344 14.765625 4.183594 14.765625 8.234375 L 14.765625 54.523438 C 14.765625 58.574219 11.484375 61.855469 7.433594 61.855469 C 3.382812 61.855469 0.0976562 58.574219 0.0976562 54.523438 L 0.0976562 8.234375 C 0.0976562 4.183594 3.382812 0.902344 7.433594 0.902344 Z M 7.433594 0.902344 " clip-rule="nonzero"/></clipPath><clipPath id="482a574a15"><rect x="0" width="15" y="0" height="62"/></clipPath><clipPath id="54c6ee56a5"><path d="M 135.15625 148.445312 L 194.851562 148.445312 L 194.851562 208.140625 L 135.15625 208.140625 Z M 135.15625 148.445312 " clip-rule="nonzero"/></clipPath><clipPath id="54c5c01b8f"><path d="M 165.003906 148.445312 C 148.519531 148.445312 135.15625 161.808594 135.15625 178.292969 C 135.15625 194.777344 148.519531 208.140625 165.003906 208.140625 C 181.488281 208.140625 194.851562 194.777344 194.851562 178.292969 C 194.851562 161.808594 181.488281 148.445312 165.003906 148.445312 Z M 165.003906 148.445312 " clip-rule="nonzero"/></clipPath><clipPath id="81425fbc89"><path d="M 0.15625 0.445312 L 59.851562 0.445312 L 59.851562 60.140625 L 0.15625 60.140625 Z M 0.15625 0.445312 " clip-rule="nonzero"/></clipPath><clipPath id="bc1c88a70f"><path d="M 30.003906 0.445312 C 13.519531 0.445312 0.15625 13.808594 0.15625 30.292969 C 0.15625 46.777344 13.519531 60.140625 30.003906 60.140625 C 46.488281 60.140625 59.851562 46.777344 59.851562 30.292969 C 59.851562 13.808594 46.488281 0.445312 30.003906 0.445312 Z M 30.003906 0.445312 " clip-rule="nonzero"/></clipPath><clipPath id="86a524a4f0"><rect x="0" width="60" y="0" height="61"/></clipPath><clipPath id="c3709b69d7"><path d="M 152 158 L 179 158 L 179 199 L 152 199 Z M 152 158 " clip-rule="nonzero"/></clipPath><clipPath id="a1a8fb3fc2"><path d="M 164.933594 154.101562 L 187.5 163.195312 L 171.871094 201.980469 L 149.304688 192.886719 Z M 164.933594 154.101562 " clip-rule="nonzero"/></clipPath><clipPath id="f06f042bbf"><path d="M 176.214844 158.648438 C 178.1875 167.960938 179.664062 182.644531 176.304688 190.980469 C 173.855469 197.050781 166.816406 199.945312 160.589844 197.433594 C 154.363281 194.925781 151.292969 187.960938 153.738281 181.890625 C 157.097656 173.554688 173.300781 171.570312 176.214844 158.648438 Z M 176.214844 158.648438 " clip-rule="nonzero"/></clipPath><clipPath id="b2ffcce2ad"><path d="M 0 0.640625 L 27 0.640625 L 27 41 L 0 41 Z M 0 0.640625 " clip-rule="nonzero"/></clipPath><clipPath id="9763e26d92"><path d="M 12.933594 -3.898438 L 35.5 5.195312 L 19.871094 43.980469 L -2.695312 34.886719 Z M 12.933594 -3.898438 " clip-rule="nonzero"/></clipPath><clipPath id="68f7bf9f2c"><path d="M 24.214844 0.648438 C 26.1875 9.960938 27.664062 24.644531 24.304688 32.980469 C 21.855469 39.050781 14.816406 41.945312 8.589844 39.433594 C 2.363281 36.925781 -0.707031 29.960938 1.738281 23.890625 C 5.097656 15.554688 21.300781 13.570312 24.214844 0.648438 Z M 24.214844 0.648438 " clip-rule="nonzero"/></clipPath><clipPath id="23a023aa40"><rect x="0" width="27" y="0" height="41"/></clipPath><clipPath id="fa6a97f099"><path d="M 157 160 L 164 160 L 164 171 L 157 171 Z M 157 160 " clip-rule="nonzero"/></clipPath><clipPath id="64dcc84610"><path d="M 156.199219 160.996094 L 162.066406 159.761719 L 164.191406 169.847656 L 158.324219 171.082031 Z M 156.199219 160.996094 " clip-rule="nonzero"/></clipPath><clipPath id="ba85367e8b"><path d="M 159.132812 160.378906 C 160.8125 162.015625 163.132812 164.820312 163.585938 166.988281 C 163.917969 168.566406 162.875 170.121094 161.257812 170.464844 C 159.636719 170.804688 158.050781 169.800781 157.71875 168.222656 C 157.265625 166.054688 160.308594 163.425781 159.132812 160.378906 Z M 159.132812 160.378906 " clip-rule="nonzero"/></clipPath><clipPath id="9605134421"><path d="M 0.199219 0.320312 L 6.921875 0.320312 L 6.921875 10.878906 L 0.199219 10.878906 Z M 0.199219 0.320312 " clip-rule="nonzero"/></clipPath><clipPath id="c201776ec8"><path d="M -0.800781 0.996094 L 5.066406 -0.238281 L 7.191406 9.847656 L 1.324219 11.082031 Z M -0.800781 0.996094 " clip-rule="nonzero"/></clipPath><clipPath id="0974e34a64"><path d="M 2.132812 0.378906 C 3.8125 2.015625 6.132812 4.820312 6.585938 6.988281 C 6.917969 8.566406 5.875 10.121094 4.257812 10.464844 C 2.636719 10.804688 1.050781 9.800781 0.71875 8.222656 C 0.265625 6.054688 3.308594 3.425781 2.132812 0.378906 Z M 2.132812 0.378906 " clip-rule="nonzero"/></clipPath><clipPath id="d81f466aeb"><rect x="0" width="7" y="0" height="11"/></clipPath><clipPath id="b6ea81d8c2"><path d="M 149 167 L 156 167 L 156 178 L 149 178 Z M 149 167 " clip-rule="nonzero"/></clipPath><clipPath id="f2ab523e76"><path d="M 148.207031 167.820312 L 154.074219 166.582031 L 156.199219 176.667969 L 150.332031 177.902344 Z M 148.207031 167.820312 " clip-rule="nonzero"/></clipPath><clipPath id="e70f4546c4"><path d="M 151.140625 167.199219 C 152.824219 168.835938 155.140625 171.640625 155.597656 173.808594 C 155.929688 175.386719 154.882812 176.945312 153.265625 177.285156 C 151.644531 177.625 150.0625 176.621094 149.730469 175.042969 C 149.273438 172.875 152.316406 170.246094 151.140625 167.199219 Z M 151.140625 167.199219 " clip-rule="nonzero"/></clipPath><clipPath id="4736f4d4ee"><path d="M 0.0390625 0.0390625 L 7 0.0390625 L 7 10.839844 L 0.0390625 10.839844 Z M 0.0390625 0.0390625 " clip-rule="nonzero"/></clipPath><clipPath id="58156d4337"><path d="M -0.792969 0.820312 L 5.074219 -0.417969 L 7.199219 9.667969 L 1.332031 10.902344 Z M -0.792969 0.820312 " clip-rule="nonzero"/></clipPath><clipPath id="8ca7576ebb"><path d="M 2.140625 0.199219 C 3.824219 1.835938 6.140625 4.640625 6.597656 6.808594 C 6.929688 8.386719 5.882812 9.945312 4.265625 10.285156 C 2.644531 10.625 1.0625 9.621094 0.730469 8.042969 C 0.273438 5.875 3.316406 3.246094 2.140625 0.199219 Z M 2.140625 0.199219 " clip-rule="nonzero"/></clipPath><clipPath id="73c9461131"><rect x="0" width="7" y="0" height="11"/></clipPath><clipPath id="77d32896ac"><path d="M 165 154 L 172 154 L 172 165 L 165 165 Z M 165 154 " clip-rule="nonzero"/></clipPath><clipPath id="33fe5c3051"><path d="M 164.191406 155.335938 L 170.058594 154.101562 L 172.179688 164.1875 L 166.3125 165.421875 Z M 164.191406 155.335938 " clip-rule="nonzero"/></clipPath><clipPath id="9a3aa973a2"><path d="M 167.125 154.71875 C 168.804688 156.355469 171.121094 159.160156 171.578125 161.328125 C 171.910156 162.90625 170.867188 164.464844 169.246094 164.804688 C 167.628906 165.144531 166.042969 164.140625 165.710938 162.5625 C 165.253906 160.394531 168.300781 157.765625 167.125 154.71875 Z M 167.125 154.71875 " clip-rule="nonzero"/></clipPath><clipPath id="e443fb1ef3"><path d="M 0.121094 0.558594 L 7 0.558594 L 7 11 L 0.121094 11 Z M 0.121094 0.558594 " clip-rule="nonzero"/></clipPath><clipPath id="0c51dea61d"><path d="M -0.808594 1.335938 L 5.058594 0.101562 L 7.179688 10.1875 L 1.3125 11.421875 Z M -0.808594 1.335938 " clip-rule="nonzero"/></clipPath><clipPath id="da68f74227"><path d="M 2.125 0.71875 C 3.804688 2.355469 6.121094 5.160156 6.578125 7.328125 C 6.910156 8.90625 5.867188 10.464844 4.246094 10.804688 C 2.628906 11.144531 1.042969 10.140625 0.710938 8.5625 C 0.253906 6.394531 3.300781 3.765625 2.125 0.71875 Z M 2.125 0.71875 " clip-rule="nonzero"/></clipPath><clipPath id="55897ef2d4"><rect x="0" width="7" y="0" height="11"/></clipPath><clipPath id="817c4bcc2f"><path d="M 1 1 L 4.878906 1 L 4.878906 5 L 1 5 Z M 1 1 " clip-rule="nonzero"/></clipPath><clipPath id="e62c4dc47c"><rect x="0" width="5" y="0" height="6"/></clipPath></defs><rect x="-37.5" width="450" fill="#ffffff" y="-37.499999" height="449.999989" fill-opacity="1"/><rect x="-37.5" width="450" fill="#ffffff" y="-37.499999" height="449.999989" fill-opacity="1"/><g clip-path="url(#6fcc2a1358)"><g clip-path="url(#cf09e4644a)"><g transform="matrix(1, 0, 0, 1, 183, 144)"><g clip-path="url(#482a574a15)"><g clip-path="url(#99f7d1c89a)"><g clip-path="url(#288f962b43)"><path fill="#004aad" d="M 0.0976562 0.902344 L 14.765625 0.902344 L 14.765625 61.867188 L 0.0976562 61.867188 Z M 0.0976562 0.902344 " fill-opacity="1" fill-rule="nonzero"/></g></g></g></g></g></g><g fill="#ffbd59" fill-opacity="1"><g transform="translate(132.899922, 248.690763)"><g><path d="M 33.21875 1.359375 C 25.175781 1.359375 18.492188 -0.160156 13.171875 -3.203125 C 7.847656 -6.253906 3.976562 -10.351562 1.5625 -15.5 L 12.125 -28.359375 L 13.75 -28.359375 C 15.476562 -24.203125 17.929688 -20.921875 21.109375 -18.515625 C 24.296875 -16.117188 27.988281 -14.921875 32.1875 -14.921875 C 36.894531 -14.921875 40.394531 -16.289062 42.6875 -19.03125 C 44.976562 -21.78125 46.125 -26.25 46.125 -32.4375 L 46.125 -94.859375 L 64.8125 -94.859375 L 64.8125 -32.109375 C 64.8125 -20.648438 62.203125 -12.207031 56.984375 -6.78125 C 51.773438 -1.351562 43.851562 1.359375 33.21875 1.359375 Z M 33.21875 1.359375 "/></g></g></g><g clip-path="url(#54c6ee56a5)"><g clip-path="url(#54c5c01b8f)"><g transform="matrix(1, 0, 0, 1, 135, 148)"><g clip-path="url(#86a524a4f0)"><g clip-path="url(#81425fbc89)"><g clip-path="url(#bc1c88a70f)"><path fill="#ffbd59" d="M 0.15625 0.445312 L 59.851562 0.445312 L 59.851562 60.140625 L 0.15625 60.140625 Z M 0.15625 0.445312 " fill-opacity="1" fill-rule="nonzero"/></g></g></g></g></g></g><g clip-path="url(#c3709b69d7)"><g clip-path="url(#a1a8fb3fc2)"><g clip-path="url(#f06f042bbf)"><g transform="matrix(1, 0, 0, 1, 152, 158)"><g clip-path="url(#23a023aa40)"><g clip-path="url(#b2ffcce2ad)"><g clip-path="url(#9763e26d92)"><g clip-path="url(#68f7bf9f2c)"><path fill="#004aad" d="M 12.933594 -3.898438 L 35.5 5.195312 L 19.871094 43.980469 L -2.695312 34.886719 Z M 12.933594 -3.898438 " fill-opacity="1" fill-rule="nonzero"/></g></g></g></g></g></g></g></g><g clip-path="url(#fa6a97f099)"><g clip-path="url(#64dcc84610)"><g clip-path="url(#ba85367e8b)"><g transform="matrix(1, 0, 0, 1, 157, 160)"><g clip-path="url(#d81f466aeb)"><g clip-path="url(#9605134421)"><g clip-path="url(#c201776ec8)"><g clip-path="url(#0974e34a64)"><path fill="#004aad" d="M -0.800781 0.996094 L 5.066406 -0.238281 L 7.191406 9.847656 L 1.324219 11.082031 Z M -0.800781 0.996094 " fill-opacity="1" fill-rule="nonzero"/></g></g></g></g></g></g></g></g><g clip-path="url(#b6ea81d8c2)"><g clip-path="url(#f2ab523e76)"><g clip-path="url(#e70f4546c4)"><g transform="matrix(1, 0, 0, 1, 149, 167)"><g clip-path="url(#73c9461131)"><g clip-path="url(#4736f4d4ee)"><g clip-path="url(#58156d4337)"><g clip-path="url(#8ca7576ebb)"><path fill="#004aad" d="M -0.792969 0.820312 L 5.074219 -0.417969 L 7.199219 9.667969 L 1.332031 10.902344 Z M -0.792969 0.820312 " fill-opacity="1" fill-rule="nonzero"/></g></g></g></g></g></g></g></g><g clip-path="url(#77d32896ac)"><g clip-path="url(#33fe5c3051)"><g clip-path="url(#9a3aa973a2)"><g transform="matrix(1, 0, 0, 1, 165, 154)"><g clip-path="url(#55897ef2d4)"><g clip-path="url(#e443fb1ef3)"><g clip-path="url(#0c51dea61d)"><g clip-path="url(#da68f74227)"><path fill="#004aad" d="M -0.808594 1.335938 L 5.058594 0.101562 L 7.179688 10.1875 L 1.3125 11.421875 Z M -0.808594 1.335938 " fill-opacity="1" fill-rule="nonzero"/></g></g></g></g></g></g></g></g><g transform="matrix(1, 0, 0, 1, 136, 228)"><g clip-path="url(#e62c4dc47c)"><g clip-path="url(#817c4bcc2f)"><g fill="#dddddd" fill-opacity="1"><g transform="translate(2.248036, 4.361589)"><g><path d="M 0.34375 -0.34375 C 0.300781 -0.300781 0.253906 -0.257812 0.203125 -0.21875 C 0.148438 -0.1875 0.0976562 -0.164062 0.046875 -0.15625 C -0.00390625 -0.144531 -0.0507812 -0.15625 -0.09375 -0.1875 L -0.09375 -0.3125 L -0.078125 -0.328125 C -0.0234375 -0.316406 0.0234375 -0.320312 0.078125 -0.34375 C 0.140625 -0.363281 0.191406 -0.394531 0.234375 -0.4375 C 0.285156 -0.5 0.316406 -0.554688 0.328125 -0.609375 C 0.335938 -0.660156 0.320312 -0.707031 0.28125 -0.75 C 0.25 -0.769531 0.210938 -0.78125 0.171875 -0.78125 C 0.128906 -0.78125 0.0859375 -0.765625 0.046875 -0.734375 L -0.109375 -0.640625 C -0.191406 -0.578125 -0.265625 -0.546875 -0.328125 -0.546875 C -0.398438 -0.546875 -0.46875 -0.570312 -0.53125 -0.625 C -0.5625 -0.65625 -0.582031 -0.695312 -0.59375 -0.75 C -0.613281 -0.8125 -0.613281 -0.867188 -0.59375 -0.921875 C -0.570312 -0.984375 -0.535156 -1.039062 -0.484375 -1.09375 C -0.421875 -1.164062 -0.359375 -1.21875 -0.296875 -1.25 C -0.234375 -1.28125 -0.175781 -1.285156 -0.125 -1.265625 L -0.125 -1.140625 L -0.140625 -1.140625 C -0.179688 -1.128906 -0.222656 -1.113281 -0.265625 -1.09375 C -0.304688 -1.082031 -0.347656 -1.054688 -0.390625 -1.015625 C -0.429688 -0.972656 -0.457031 -0.925781 -0.46875 -0.875 C -0.476562 -0.820312 -0.46875 -0.78125 -0.4375 -0.75 C -0.40625 -0.71875 -0.367188 -0.703125 -0.328125 -0.703125 C -0.285156 -0.703125 -0.234375 -0.722656 -0.171875 -0.765625 L -0.03125 -0.875 C 0.0507812 -0.925781 0.125 -0.945312 0.1875 -0.9375 C 0.25 -0.9375 0.3125 -0.910156 0.375 -0.859375 C 0.414062 -0.816406 0.441406 -0.769531 0.453125 -0.71875 C 0.472656 -0.664062 0.472656 -0.609375 0.453125 -0.546875 C 0.441406 -0.484375 0.40625 -0.414062 0.34375 -0.34375 Z M 0.34375 -0.34375 "/></g></g><g transform="translate(2.916134, 3.622769)"><g><path d="M 0.953125 -0.40625 L 0.515625 -0.8125 L 0.515625 -0.796875 C 0.523438 -0.722656 0.519531 -0.648438 0.5 -0.578125 C 0.476562 -0.515625 0.441406 -0.457031 0.390625 -0.40625 C 0.328125 -0.332031 0.257812 -0.285156 0.1875 -0.265625 C 0.113281 -0.253906 0.0351562 -0.257812 -0.046875 -0.28125 C -0.128906 -0.3125 -0.21875 -0.367188 -0.3125 -0.453125 C -0.40625 -0.535156 -0.46875 -0.617188 -0.5 -0.703125 C -0.539062 -0.785156 -0.550781 -0.863281 -0.53125 -0.9375 C -0.519531 -1.019531 -0.484375 -1.09375 -0.421875 -1.15625 C -0.367188 -1.21875 -0.3125 -1.257812 -0.25 -1.28125 C -0.195312 -1.3125 -0.132812 -1.320312 -0.0625 -1.3125 L -0.0625 -1.328125 L -0.171875 -1.421875 L -0.0625 -1.53125 L 1.0625 -0.515625 Z M 0.3125 -0.53125 C 0.351562 -0.570312 0.378906 -0.625 0.390625 -0.6875 C 0.410156 -0.75 0.40625 -0.8125 0.375 -0.875 C 0.34375 -0.9375 0.296875 -1 0.234375 -1.0625 C 0.117188 -1.15625 0.0195312 -1.203125 -0.0625 -1.203125 C -0.144531 -1.203125 -0.222656 -1.164062 -0.296875 -1.09375 C -0.441406 -0.925781 -0.410156 -0.75 -0.203125 -0.5625 C -0.109375 -0.46875 -0.0195312 -0.421875 0.0625 -0.421875 C 0.15625 -0.421875 0.238281 -0.457031 0.3125 -0.53125 Z M 0.3125 -0.53125 "/></g></g><g transform="translate(3.778767, 2.668822)"><g><path d="M 0.296875 -0.296875 C 0.242188 -0.242188 0.1875 -0.21875 0.125 -0.21875 C 0.0703125 -0.21875 0.015625 -0.242188 -0.046875 -0.296875 L -1 -1.15625 L -0.890625 -1.265625 L 0.046875 -0.421875 C 0.078125 -0.390625 0.101562 -0.375 0.125 -0.375 C 0.15625 -0.375 0.179688 -0.390625 0.203125 -0.421875 C 0.222656 -0.429688 0.234375 -0.445312 0.234375 -0.46875 L 0.265625 -0.46875 L 0.359375 -0.40625 C 0.367188 -0.382812 0.363281 -0.363281 0.34375 -0.34375 C 0.332031 -0.332031 0.316406 -0.316406 0.296875 -0.296875 Z M 0.296875 -0.296875 "/></g></g></g></g></g></g></svg>