<svg xmlns="http://www.w3.org/2000/svg" xmlns:xlink="http://www.w3.org/1999/xlink" width="213" zoomAndPan="magnify" viewBox="0 0 159.75 225" height="300" preserveAspectRatio="xMidYMid meet" version="1.0"><defs><g/><clipPath id="04a7e8ccf6"><path d="M 0 0.175781 L 159.5 0.175781 L 159.5 224.824219 L 0 224.824219 Z M 0 0.175781 " clip-rule="nonzero"/></clipPath><clipPath id="10053b49cf"><path d="M 91.394531 59.5 L 106.039062 59.5 L 106.039062 120.367188 L 91.394531 120.367188 Z M 91.394531 59.5 " clip-rule="nonzero"/></clipPath><clipPath id="c951a3d657"><path d="M 98.71875 59.5 C 102.761719 59.5 106.039062 62.777344 106.039062 66.820312 L 106.039062 113.035156 C 106.039062 117.082031 102.761719 120.359375 98.71875 120.359375 C 94.675781 120.359375 91.394531 117.082031 91.394531 113.035156 L 91.394531 66.820312 C 91.394531 62.777344 94.675781 59.5 98.71875 59.5 Z M 98.71875 59.5 " clip-rule="nonzero"/></clipPath><clipPath id="6f1577c5b8"><path d="M 0.394531 0.5 L 15.039062 0.5 L 15.039062 61.367188 L 0.394531 61.367188 Z M 0.394531 0.5 " clip-rule="nonzero"/></clipPath><clipPath id="98e9c19671"><path d="M 7.71875 0.5 C 11.761719 0.5 15.039062 3.777344 15.039062 7.820312 L 15.039062 54.035156 C 15.039062 58.082031 11.761719 61.359375 7.71875 61.359375 C 3.675781 61.359375 0.394531 58.082031 0.394531 54.035156 L 0.394531 7.820312 C 0.394531 3.777344 3.675781 0.5 7.71875 0.5 Z M 7.71875 0.5 " clip-rule="nonzero"/></clipPath><clipPath id="f4195d2928"><rect x="0" width="16" y="0" height="62"/></clipPath><clipPath id="2e0b979aa4"><path d="M 43.527344 63.035156 L 103.132812 63.035156 L 103.132812 122.640625 L 43.527344 122.640625 Z M 43.527344 63.035156 " clip-rule="nonzero"/></clipPath><clipPath id="ea288cdf03"><path d="M 73.328125 63.035156 C 56.871094 63.035156 43.527344 76.378906 43.527344 92.835938 C 43.527344 109.296875 56.871094 122.640625 73.328125 122.640625 C 89.789062 122.640625 103.132812 109.296875 103.132812 92.835938 C 103.132812 76.378906 89.789062 63.035156 73.328125 63.035156 Z M 73.328125 63.035156 " clip-rule="nonzero"/></clipPath><clipPath id="693e41611c"><path d="M 0.527344 0.0351562 L 60.132812 0.0351562 L 60.132812 59.640625 L 0.527344 59.640625 Z M 0.527344 0.0351562 " clip-rule="nonzero"/></clipPath><clipPath id="81aca36874"><path d="M 30.328125 0.0351562 C 13.871094 0.0351562 0.527344 13.378906 0.527344 29.835938 C 0.527344 46.296875 13.871094 59.640625 30.328125 59.640625 C 46.789062 59.640625 60.132812 46.296875 60.132812 29.835938 C 60.132812 13.378906 46.789062 0.0351562 30.328125 0.0351562 Z M 30.328125 0.0351562 " clip-rule="nonzero"/></clipPath><clipPath id="bfdb9319fa"><rect x="0" width="61" y="0" height="60"/></clipPath><clipPath id="48c45934e1"><path d="M 61 73 L 87 73 L 87 113 L 61 113 Z M 61 73 " clip-rule="nonzero"/></clipPath><clipPath id="f86be14802"><path d="M 73.257812 68.6875 L 95.789062 77.765625 L 80.1875 116.488281 L 57.65625 107.410156 Z M 73.257812 68.6875 " clip-rule="nonzero"/></clipPath><clipPath id="f303412419"><path d="M 84.523438 73.226562 C 86.496094 82.523438 87.964844 97.183594 84.613281 105.507812 C 82.167969 111.566406 75.136719 114.453125 68.921875 111.949219 C 62.703125 109.445312 59.636719 102.488281 62.082031 96.429688 C 65.433594 88.105469 81.613281 86.128906 84.523438 73.226562 Z M 84.523438 73.226562 " clip-rule="nonzero"/></clipPath><clipPath id="640cf36c62"><path d="M 0 0.0234375 L 26 0.0234375 L 26 40 L 0 40 Z M 0 0.0234375 " clip-rule="nonzero"/></clipPath><clipPath id="23b000940f"><path d="M 12.257812 -4.3125 L 34.789062 4.765625 L 19.1875 43.488281 L -3.34375 34.410156 Z M 12.257812 -4.3125 " clip-rule="nonzero"/></clipPath><clipPath id="1114e0af3e"><path d="M 23.523438 0.226562 C 25.496094 9.523438 26.964844 24.183594 23.613281 32.507812 C 21.167969 38.566406 14.136719 41.453125 7.921875 38.949219 C 1.703125 36.445312 -1.363281 29.488281 1.082031 23.429688 C 4.433594 15.105469 20.613281 13.128906 23.523438 0.226562 Z M 23.523438 0.226562 " clip-rule="nonzero"/></clipPath><clipPath id="477dbec02b"><rect x="0" width="26" y="0" height="40"/></clipPath><clipPath id="80599bd48e"><path d="M 66 74 L 72 74 L 72 86 L 66 86 Z M 66 74 " clip-rule="nonzero"/></clipPath><clipPath id="461348ac6e"><path d="M 64.539062 75.570312 L 70.394531 74.335938 L 72.515625 84.402344 L 66.660156 85.636719 Z M 64.539062 75.570312 " clip-rule="nonzero"/></clipPath><clipPath id="aed3e45a37"><path d="M 67.46875 74.953125 C 69.144531 76.585938 71.460938 79.386719 71.914062 81.550781 C 72.246094 83.125 71.203125 84.679688 69.585938 85.019531 C 67.972656 85.363281 66.390625 84.359375 66.058594 82.78125 C 65.601562 80.617188 68.640625 77.992188 67.46875 74.953125 Z M 67.46875 74.953125 " clip-rule="nonzero"/></clipPath><clipPath id="0564c1db0e"><path d="M 0 0.9375 L 6 0.9375 L 6 11.480469 L 0 11.480469 Z M 0 0.9375 " clip-rule="nonzero"/></clipPath><clipPath id="73d5f9e9da"><path d="M -1.460938 1.570312 L 4.394531 0.335938 L 6.515625 10.402344 L 0.660156 11.636719 Z M -1.460938 1.570312 " clip-rule="nonzero"/></clipPath><clipPath id="2dd8855926"><path d="M 1.46875 0.953125 C 3.144531 2.585938 5.460938 5.386719 5.914062 7.550781 C 6.246094 9.125 5.203125 10.679688 3.585938 11.019531 C 1.972656 11.363281 0.390625 10.359375 0.0585938 8.78125 C -0.398438 6.617188 2.640625 3.992188 1.46875 0.953125 Z M 1.46875 0.953125 " clip-rule="nonzero"/></clipPath><clipPath id="62c63da84d"><rect x="0" width="6" y="0" height="12"/></clipPath><clipPath id="182a3fc15f"><path d="M 58 81 L 64 81 L 64 92 L 58 92 Z M 58 81 " clip-rule="nonzero"/></clipPath><clipPath id="12c6e09d7f"><path d="M 56.558594 82.378906 L 62.417969 81.144531 L 64.539062 91.214844 L 58.679688 92.449219 Z M 56.558594 82.378906 " clip-rule="nonzero"/></clipPath><clipPath id="d148da1fe0"><path d="M 59.488281 81.761719 C 61.167969 83.394531 63.480469 86.195312 63.9375 88.359375 C 64.269531 89.933594 63.226562 91.492188 61.609375 91.832031 C 59.992188 92.171875 58.410156 91.167969 58.078125 89.59375 C 57.625 87.429688 60.664062 84.804688 59.488281 81.761719 Z M 59.488281 81.761719 " clip-rule="nonzero"/></clipPath><clipPath id="dc839c758a"><path d="M 0 0.648438 L 6 0.648438 L 6 11 L 0 11 Z M 0 0.648438 " clip-rule="nonzero"/></clipPath><clipPath id="9bc0816d3c"><path d="M -1.441406 1.378906 L 4.417969 0.144531 L 6.539062 10.214844 L 0.679688 11.449219 Z M -1.441406 1.378906 " clip-rule="nonzero"/></clipPath><clipPath id="d8c8a057d2"><path d="M 1.488281 0.761719 C 3.167969 2.394531 5.480469 5.195312 5.9375 7.359375 C 6.269531 8.933594 5.226562 10.492188 3.609375 10.832031 C 1.992188 11.171875 0.410156 10.167969 0.078125 8.59375 C -0.375 6.429688 2.664062 3.804688 1.488281 0.761719 Z M 1.488281 0.761719 " clip-rule="nonzero"/></clipPath><clipPath id="583e9eb14e"><rect x="0" width="6" y="0" height="11"/></clipPath><clipPath id="3a9393f484"><path d="M 73 69 L 80 69 L 80 80 L 73 80 Z M 73 69 " clip-rule="nonzero"/></clipPath><clipPath id="4faf2cb08c"><path d="M 72.515625 69.917969 L 78.375 68.683594 L 80.496094 78.753906 L 74.636719 79.988281 Z M 72.515625 69.917969 " clip-rule="nonzero"/></clipPath><clipPath id="dfac83b08a"><path d="M 75.445312 69.300781 C 77.125 70.933594 79.4375 73.734375 79.894531 75.898438 C 80.226562 77.472656 79.183594 79.03125 77.566406 79.371094 C 75.949219 79.710938 74.367188 78.707031 74.035156 77.132812 C 73.578125 74.96875 76.621094 72.34375 75.445312 69.300781 Z M 75.445312 69.300781 " clip-rule="nonzero"/></clipPath><clipPath id="4a506e4473"><path d="M 0.566406 0.1875 L 7 0.1875 L 7 10.730469 L 0.566406 10.730469 Z M 0.566406 0.1875 " clip-rule="nonzero"/></clipPath><clipPath id="41965f565f"><path d="M -0.484375 0.917969 L 5.375 -0.316406 L 7.496094 9.753906 L 1.636719 10.988281 Z M -0.484375 0.917969 " clip-rule="nonzero"/></clipPath><clipPath id="fa216b5f7d"><path d="M 2.445312 0.300781 C 4.125 1.933594 6.4375 4.734375 6.894531 6.898438 C 7.226562 8.472656 6.183594 10.03125 4.566406 10.371094 C 2.949219 10.710938 1.367188 9.707031 1.035156 8.132812 C 0.578125 5.96875 3.621094 3.34375 2.445312 0.300781 Z M 2.445312 0.300781 " clip-rule="nonzero"/></clipPath><clipPath id="51a2fe58d3"><rect x="0" width="7" y="0" height="11"/></clipPath><clipPath id="d19117f925"><rect x="0" width="6" y="0" height="6"/></clipPath></defs><g clip-path="url(#04a7e8ccf6)"><path fill="#ffffff" d="M 0 0.175781 L 159.5 0.175781 L 159.5 224.824219 L 0 224.824219 Z M 0 0.175781 " fill-opacity="1" fill-rule="nonzero"/></g><g clip-path="url(#10053b49cf)"><g clip-path="url(#c951a3d657)"><g transform="matrix(1, 0, 0, 1, 91, 59)"><g clip-path="url(#f4195d2928)"><g clip-path="url(#6f1577c5b8)"><g clip-path="url(#98e9c19671)"><path fill="#004aad" d="M 0.394531 0.5 L 15.039062 0.5 L 15.039062 61.367188 L 0.394531 61.367188 Z M 0.394531 0.5 " fill-opacity="1" fill-rule="nonzero"/></g></g></g></g></g></g><g fill="#ffbd59" fill-opacity="1"><g transform="translate(41.275576, 163.12562)"><g><path d="M 33.171875 1.359375 C 25.128906 1.359375 18.453125 -0.160156 13.140625 -3.203125 C 7.835938 -6.242188 3.972656 -10.335938 1.546875 -15.484375 L 12.109375 -28.3125 L 13.734375 -28.3125 C 15.460938 -24.164062 17.910156 -20.890625 21.078125 -18.484375 C 24.253906 -16.085938 27.9375 -14.890625 32.125 -14.890625 C 36.832031 -14.890625 40.328125 -16.257812 42.609375 -19 C 44.898438 -21.75 46.046875 -26.210938 46.046875 -32.390625 L 46.046875 -94.703125 L 64.703125 -94.703125 L 64.703125 -32.0625 C 64.703125 -20.613281 62.097656 -12.179688 56.890625 -6.765625 C 51.691406 -1.347656 43.785156 1.359375 33.171875 1.359375 Z M 33.171875 1.359375 "/></g></g></g><g clip-path="url(#2e0b979aa4)"><g clip-path="url(#ea288cdf03)"><g transform="matrix(1, 0, 0, 1, 43, 63)"><g clip-path="url(#bfdb9319fa)"><g clip-path="url(#693e41611c)"><g clip-path="url(#81aca36874)"><path fill="#ffbd59" d="M 0.527344 0.0351562 L 60.132812 0.0351562 L 60.132812 59.640625 L 0.527344 59.640625 Z M 0.527344 0.0351562 " fill-opacity="1" fill-rule="nonzero"/></g></g></g></g></g></g><g clip-path="url(#48c45934e1)"><g clip-path="url(#f86be14802)"><g clip-path="url(#f303412419)"><g transform="matrix(1, 0, 0, 1, 61, 73)"><g clip-path="url(#477dbec02b)"><g clip-path="url(#640cf36c62)"><g clip-path="url(#23b000940f)"><g clip-path="url(#1114e0af3e)"><path fill="#004aad" d="M 12.257812 -4.3125 L 34.789062 4.765625 L 19.1875 43.488281 L -3.34375 34.410156 Z M 12.257812 -4.3125 " fill-opacity="1" fill-rule="nonzero"/></g></g></g></g></g></g></g></g><g clip-path="url(#80599bd48e)"><g clip-path="url(#461348ac6e)"><g clip-path="url(#aed3e45a37)"><g transform="matrix(1, 0, 0, 1, 66, 74)"><g clip-path="url(#62c63da84d)"><g clip-path="url(#0564c1db0e)"><g clip-path="url(#73d5f9e9da)"><g clip-path="url(#2dd8855926)"><path fill="#004aad" d="M -1.460938 1.570312 L 4.394531 0.335938 L 6.515625 10.402344 L 0.660156 11.636719 Z M -1.460938 1.570312 " fill-opacity="1" fill-rule="nonzero"/></g></g></g></g></g></g></g></g><g clip-path="url(#182a3fc15f)"><g clip-path="url(#12c6e09d7f)"><g clip-path="url(#d148da1fe0)"><g transform="matrix(1, 0, 0, 1, 58, 81)"><g clip-path="url(#583e9eb14e)"><g clip-path="url(#dc839c758a)"><g clip-path="url(#9bc0816d3c)"><g clip-path="url(#d8c8a057d2)"><path fill="#004aad" d="M -1.441406 1.378906 L 4.417969 0.144531 L 6.539062 10.214844 L 0.679688 11.449219 Z M -1.441406 1.378906 " fill-opacity="1" fill-rule="nonzero"/></g></g></g></g></g></g></g></g><g clip-path="url(#3a9393f484)"><g clip-path="url(#4faf2cb08c)"><g clip-path="url(#dfac83b08a)"><g transform="matrix(1, 0, 0, 1, 73, 69)"><g clip-path="url(#51a2fe58d3)"><g clip-path="url(#4a506e4473)"><g clip-path="url(#41965f565f)"><g clip-path="url(#fa216b5f7d)"><path fill="#004aad" d="M -0.484375 0.917969 L 5.375 -0.316406 L 7.496094 9.753906 L 1.636719 10.988281 Z M -0.484375 0.917969 " fill-opacity="1" fill-rule="nonzero"/></g></g></g></g></g></g></g></g><g transform="matrix(1, 0, 0, 1, 44, 142)"><g clip-path="url(#d19117f925)"><g fill="#dddddd" fill-opacity="1"><g transform="translate(2.615326, 4.821944)"><g><path d="M 0.34375 -0.34375 C 0.300781 -0.300781 0.253906 -0.257812 0.203125 -0.21875 C 0.148438 -0.1875 0.0976562 -0.164062 0.046875 -0.15625 C -0.00390625 -0.144531 -0.0507812 -0.15625 -0.09375 -0.1875 L -0.09375 -0.3125 L -0.078125 -0.328125 C -0.0234375 -0.316406 0.0234375 -0.320312 0.078125 -0.34375 C 0.140625 -0.363281 0.191406 -0.394531 0.234375 -0.4375 C 0.285156 -0.5 0.316406 -0.554688 0.328125 -0.609375 C 0.335938 -0.660156 0.320312 -0.707031 0.28125 -0.75 C 0.25 -0.769531 0.210938 -0.78125 0.171875 -0.78125 C 0.128906 -0.78125 0.0859375 -0.765625 0.046875 -0.734375 L -0.109375 -0.640625 C -0.191406 -0.578125 -0.265625 -0.546875 -0.328125 -0.546875 C -0.398438 -0.546875 -0.46875 -0.570312 -0.53125 -0.625 C -0.5625 -0.65625 -0.582031 -0.695312 -0.59375 -0.75 C -0.613281 -0.8125 -0.613281 -0.867188 -0.59375 -0.921875 C -0.570312 -0.984375 -0.535156 -1.039062 -0.484375 -1.09375 C -0.421875 -1.164062 -0.359375 -1.21875 -0.296875 -1.25 C -0.234375 -1.28125 -0.175781 -1.285156 -0.125 -1.265625 L -0.125 -1.140625 L -0.140625 -1.140625 C -0.179688 -1.128906 -0.222656 -1.113281 -0.265625 -1.09375 C -0.304688 -1.082031 -0.347656 -1.054688 -0.390625 -1.015625 C -0.429688 -0.972656 -0.457031 -0.925781 -0.46875 -0.875 C -0.476562 -0.820312 -0.46875 -0.78125 -0.4375 -0.75 C -0.40625 -0.71875 -0.367188 -0.703125 -0.328125 -0.703125 C -0.285156 -0.703125 -0.234375 -0.722656 -0.171875 -0.765625 L -0.03125 -0.875 C 0.0507812 -0.925781 0.125 -0.945312 0.1875 -0.9375 C 0.25 -0.9375 0.3125 -0.910156 0.375 -0.859375 C 0.414062 -0.816406 0.441406 -0.769531 0.453125 -0.71875 C 0.472656 -0.664062 0.472656 -0.609375 0.453125 -0.546875 C 0.441406 -0.484375 0.40625 -0.414062 0.34375 -0.34375 Z M 0.34375 -0.34375 "/></g></g><g transform="translate(3.282381, 4.084278)"><g><path d="M 0.953125 -0.40625 L 0.515625 -0.8125 L 0.515625 -0.796875 C 0.523438 -0.722656 0.519531 -0.648438 0.5 -0.578125 C 0.476562 -0.515625 0.441406 -0.457031 0.390625 -0.40625 C 0.328125 -0.332031 0.257812 -0.285156 0.1875 -0.265625 C 0.113281 -0.253906 0.0351562 -0.257812 -0.046875 -0.28125 C -0.128906 -0.3125 -0.21875 -0.367188 -0.3125 -0.453125 C -0.40625 -0.535156 -0.46875 -0.617188 -0.5 -0.703125 C -0.539062 -0.785156 -0.550781 -0.863281 -0.53125 -0.9375 C -0.519531 -1.019531 -0.484375 -1.09375 -0.421875 -1.15625 C -0.367188 -1.21875 -0.3125 -1.257812 -0.25 -1.28125 C -0.195312 -1.3125 -0.132812 -1.320312 -0.0625 -1.3125 L -0.0625 -1.328125 L -0.171875 -1.421875 L -0.0625 -1.53125 L 1.0625 -0.515625 Z M 0.3125 -0.53125 C 0.351562 -0.570312 0.378906 -0.625 0.390625 -0.6875 C 0.410156 -0.75 0.40625 -0.8125 0.375 -0.875 C 0.34375 -0.9375 0.296875 -1 0.234375 -1.0625 C 0.117188 -1.15625 0.0195312 -1.203125 -0.0625 -1.203125 C -0.144531 -1.203125 -0.222656 -1.164062 -0.296875 -1.09375 C -0.441406 -0.925781 -0.410156 -0.75 -0.203125 -0.5625 C -0.109375 -0.46875 -0.0195312 -0.421875 0.0625 -0.421875 C 0.15625 -0.421875 0.238281 -0.457031 0.3125 -0.53125 Z M 0.3125 -0.53125 "/></g></g><g transform="translate(4.143665, 3.131821)"><g><path d="M 0.296875 -0.296875 C 0.242188 -0.242188 0.1875 -0.21875 0.125 -0.21875 C 0.0703125 -0.21875 0.015625 -0.242188 -0.046875 -0.296875 L -1 -1.15625 L -0.890625 -1.265625 L 0.046875 -0.421875 C 0.078125 -0.390625 0.101562 -0.375 0.125 -0.375 C 0.15625 -0.375 0.179688 -0.390625 0.203125 -0.421875 C 0.222656 -0.429688 0.234375 -0.445312 0.234375 -0.46875 L 0.265625 -0.46875 L 0.359375 -0.40625 C 0.367188 -0.382812 0.363281 -0.363281 0.34375 -0.34375 C 0.332031 -0.332031 0.316406 -0.316406 0.296875 -0.296875 Z M 0.296875 -0.296875 "/></g></g></g></g></g></svg>